<mxfile host="Electron" modified="2024-01-10T10:59:12.523Z" agent="Mozilla/5.0 (Macintosh; Intel Mac OS X 10_15_7) AppleWebKit/537.36 (KHTML, like Gecko) draw.io/22.1.16 Chrome/120.0.6099.109 Electron/28.1.0 Safari/537.36" etag="Ibldr_vKJauLF8kGaV_5" version="22.1.16" type="device">
  <diagram name="Page-1" id="DCZoc1D5-gzsa0HRZDUI">
    <mxGraphModel dx="1242" dy="789" grid="1" gridSize="10" guides="1" tooltips="1" connect="1" arrows="1" fold="1" page="1" pageScale="1" pageWidth="827" pageHeight="1169" math="0" shadow="0">
      <root>
        <mxCell id="0" />
        <mxCell id="1" parent="0" />
        <mxCell id="fkUFLAA0ZPrVyIxL3Ro9-119" value="" style="rounded=1;whiteSpace=wrap;html=1;arcSize=3;fillColor=#eeeeee;strokeColor=#36393d;" parent="1" vertex="1">
          <mxGeometry x="2080" y="10" width="660" height="1600" as="geometry" />
        </mxCell>
        <mxCell id="fkUFLAA0ZPrVyIxL3Ro9-2" value="" style="whiteSpace=wrap;html=1;aspect=fixed;rounded=1;arcSize=1;" parent="1" vertex="1">
          <mxGeometry x="827" y="20" width="1210" height="1210" as="geometry" />
        </mxCell>
        <mxCell id="fkUFLAA0ZPrVyIxL3Ro9-3" value="&lt;b&gt;PUHURI WALDUR SERVER&lt;/b&gt;" style="text;html=1;strokeColor=none;fillColor=none;align=center;verticalAlign=middle;whiteSpace=wrap;rounded=0;" parent="1" vertex="1">
          <mxGeometry x="1320" y="60" width="170" height="30" as="geometry" />
        </mxCell>
        <mxCell id="fkUFLAA0ZPrVyIxL3Ro9-26" style="edgeStyle=orthogonalEdgeStyle;rounded=0;orthogonalLoop=1;jettySize=auto;html=1;entryX=0;entryY=0.75;entryDx=0;entryDy=0;exitX=0.65;exitY=1;exitDx=0;exitDy=0;exitPerimeter=0;" parent="1" source="fkUFLAA0ZPrVyIxL3Ro9-4" target="fkUFLAA0ZPrVyIxL3Ro9-24" edge="1">
          <mxGeometry relative="1" as="geometry" />
        </mxCell>
        <mxCell id="fkUFLAA0ZPrVyIxL3Ro9-44" style="edgeStyle=orthogonalEdgeStyle;rounded=0;orthogonalLoop=1;jettySize=auto;html=1;entryX=0;entryY=0.333;entryDx=0;entryDy=0;entryPerimeter=0;" parent="1" source="fkUFLAA0ZPrVyIxL3Ro9-4" target="fkUFLAA0ZPrVyIxL3Ro9-17" edge="1">
          <mxGeometry relative="1" as="geometry">
            <Array as="points">
              <mxPoint x="950" y="930" />
            </Array>
            <mxPoint x="1460" y="930" as="targetPoint" />
          </mxGeometry>
        </mxCell>
        <mxCell id="fkUFLAA0ZPrVyIxL3Ro9-45" style="edgeStyle=orthogonalEdgeStyle;rounded=0;orthogonalLoop=1;jettySize=auto;html=1;entryX=0;entryY=0.5;entryDx=0;entryDy=0;" parent="1" source="fkUFLAA0ZPrVyIxL3Ro9-4" target="fkUFLAA0ZPrVyIxL3Ro9-14" edge="1">
          <mxGeometry relative="1" as="geometry">
            <Array as="points">
              <mxPoint x="950" y="850" />
            </Array>
          </mxGeometry>
        </mxCell>
        <mxCell id="fkUFLAA0ZPrVyIxL3Ro9-4" value="&lt;b&gt;SERVICE PROVIDER&lt;/b&gt;" style="rounded=1;whiteSpace=wrap;html=1;" parent="1" vertex="1">
          <mxGeometry x="890" y="140" width="120" height="60" as="geometry" />
        </mxCell>
        <mxCell id="fkUFLAA0ZPrVyIxL3Ro9-7" value="&lt;div style=&quot;font-size: 14px;&quot;&gt;&lt;b style=&quot;background-color: initial;&quot;&gt;&lt;font style=&quot;font-size: 14px;&quot;&gt;&amp;nbsp; &amp;nbsp; &amp;nbsp; SERVICE SERVER 1&lt;/font&gt;&lt;/b&gt;&lt;/div&gt;&lt;div style=&quot;font-size: 14px;&quot;&gt;&lt;span style=&quot;background-color: initial;&quot;&gt;&lt;font style=&quot;font-size: 14px;&quot;&gt;&amp;nbsp; &amp;nbsp; &amp;nbsp; e,g. the WACQT quantum computer, Helmi&lt;/font&gt;&lt;/span&gt;&lt;/div&gt;&lt;div style=&quot;text-align: justify; font-size: 14px;&quot;&gt;&lt;font style=&quot;font-size: 14px;&quot;&gt;&amp;nbsp;&lt;/font&gt;&lt;/div&gt;&lt;div style=&quot;text-align: justify; font-size: 14px;&quot;&gt;&lt;font style=&quot;font-size: 14px;&quot;&gt;&amp;nbsp; &amp;nbsp; &amp;nbsp; NOTE:&lt;/font&gt;&lt;/div&gt;&lt;ul style=&quot;&quot;&gt;&lt;li style=&quot;font-size: 14px; text-align: justify;&quot;&gt;&lt;span style=&quot;background-color: initial;&quot;&gt;&lt;font style=&quot;font-size: 14px;&quot;&gt;server reports usage&lt;/font&gt;&lt;/span&gt;&lt;/li&gt;&lt;li style=&quot;font-size: 14px;&quot;&gt;&lt;span style=&quot;background-color: initial;&quot;&gt;&lt;font style=&quot;font-size: 14px;&quot;&gt;is only aware of&amp;nbsp;&lt;/font&gt;&lt;/span&gt;&lt;/li&gt;&lt;ul style=&quot;font-size: 14px;&quot;&gt;&lt;li style=&quot;&quot;&gt;&lt;span style=&quot;background-color: initial;&quot;&gt;&lt;font style=&quot;font-size: 14px;&quot;&gt;project uuid&lt;/font&gt;&lt;/span&gt;&lt;/li&gt;&lt;li style=&quot;&quot;&gt;&lt;span style=&quot;background-color: initial;&quot;&gt;&lt;font style=&quot;font-size: 14px;&quot;&gt;provider&amp;nbsp;&lt;/font&gt;&lt;/span&gt;uuid&amp;nbsp;&lt;/li&gt;&lt;/ul&gt;&lt;li style=&quot;&quot;&gt;&lt;span style=&quot;font-size: 14px;&quot;&gt;can query puhuri for:&lt;/span&gt;&lt;/li&gt;&lt;ul&gt;&lt;li style=&quot;&quot;&gt;&lt;span style=&quot;font-size: 14px;&quot;&gt;provider&#39;s offerings&lt;/span&gt;&lt;/li&gt;&lt;li style=&quot;&quot;&gt;&lt;span style=&quot;font-size: 14px;&quot;&gt;offering&#39;s plans&lt;/span&gt;&lt;/li&gt;&lt;/ul&gt;&lt;/ul&gt;" style="whiteSpace=wrap;html=1;aspect=fixed;align=left;rounded=1;arcSize=7;" parent="1" vertex="1">
          <mxGeometry x="440" y="395" width="220" height="220" as="geometry" />
        </mxCell>
        <mxCell id="fkUFLAA0ZPrVyIxL3Ro9-9" value="" style="edgeStyle=entityRelationEdgeStyle;fontSize=12;html=1;endArrow=ERmandOne;startArrow=ERmandOne;rounded=0;exitX=0.995;exitY=0.347;exitDx=0;exitDy=0;exitPerimeter=0;entryX=0;entryY=0.5;entryDx=0;entryDy=0;" parent="1" source="fkUFLAA0ZPrVyIxL3Ro9-7" target="fkUFLAA0ZPrVyIxL3Ro9-4" edge="1">
          <mxGeometry width="100" height="100" relative="1" as="geometry">
            <mxPoint x="580" y="310" as="sourcePoint" />
            <mxPoint x="680" y="210" as="targetPoint" />
          </mxGeometry>
        </mxCell>
        <mxCell id="fkUFLAA0ZPrVyIxL3Ro9-21" value="" style="group" parent="1" vertex="1" connectable="0">
          <mxGeometry x="1450" y="820" width="120" height="240" as="geometry" />
        </mxCell>
        <mxCell id="fkUFLAA0ZPrVyIxL3Ro9-14" value="&lt;b&gt;COMPONENT 1&lt;/b&gt;" style="rounded=1;whiteSpace=wrap;html=1;" parent="fkUFLAA0ZPrVyIxL3Ro9-21" vertex="1">
          <mxGeometry width="120" height="60" as="geometry" />
        </mxCell>
        <mxCell id="fkUFLAA0ZPrVyIxL3Ro9-16" value="&lt;b style=&quot;border-color: var(--border-color);&quot;&gt;COMPONENT 3&lt;/b&gt;" style="rounded=1;whiteSpace=wrap;html=1;" parent="fkUFLAA0ZPrVyIxL3Ro9-21" vertex="1">
          <mxGeometry y="180" width="120" height="60" as="geometry" />
        </mxCell>
        <mxCell id="fkUFLAA0ZPrVyIxL3Ro9-17" value="&lt;b style=&quot;border-color: var(--border-color);&quot;&gt;COMPONENT 2&lt;/b&gt;" style="rounded=1;whiteSpace=wrap;html=1;" parent="fkUFLAA0ZPrVyIxL3Ro9-21" vertex="1">
          <mxGeometry y="90" width="120" height="60" as="geometry" />
        </mxCell>
        <mxCell id="fkUFLAA0ZPrVyIxL3Ro9-22" value="" style="group" parent="1" vertex="1" connectable="0">
          <mxGeometry x="1010" y="248" width="120" height="240" as="geometry" />
        </mxCell>
        <mxCell id="fkUFLAA0ZPrVyIxL3Ro9-23" value="&lt;b&gt;OFFERING 1&lt;/b&gt;" style="rounded=1;whiteSpace=wrap;html=1;" parent="fkUFLAA0ZPrVyIxL3Ro9-22" vertex="1">
          <mxGeometry width="120" height="60" as="geometry" />
        </mxCell>
        <mxCell id="fkUFLAA0ZPrVyIxL3Ro9-24" value="&lt;b style=&quot;border-color: var(--border-color);&quot;&gt;OFFERING 3&lt;/b&gt;" style="rounded=1;whiteSpace=wrap;html=1;" parent="fkUFLAA0ZPrVyIxL3Ro9-22" vertex="1">
          <mxGeometry y="180" width="120" height="60" as="geometry" />
        </mxCell>
        <mxCell id="fkUFLAA0ZPrVyIxL3Ro9-25" value="&lt;b style=&quot;border-color: var(--border-color);&quot;&gt;OFFERING 2&lt;/b&gt;" style="rounded=1;whiteSpace=wrap;html=1;" parent="fkUFLAA0ZPrVyIxL3Ro9-22" vertex="1">
          <mxGeometry y="90" width="120" height="60" as="geometry" />
        </mxCell>
        <mxCell id="fkUFLAA0ZPrVyIxL3Ro9-27" style="edgeStyle=orthogonalEdgeStyle;rounded=0;orthogonalLoop=1;jettySize=auto;html=1;entryX=-0.008;entryY=0.617;entryDx=0;entryDy=0;exitX=0.65;exitY=1.033;exitDx=0;exitDy=0;exitPerimeter=0;entryPerimeter=0;" parent="1" source="fkUFLAA0ZPrVyIxL3Ro9-4" target="fkUFLAA0ZPrVyIxL3Ro9-25" edge="1">
          <mxGeometry relative="1" as="geometry">
            <mxPoint x="978" y="210" as="sourcePoint" />
            <mxPoint x="1020" y="483" as="targetPoint" />
          </mxGeometry>
        </mxCell>
        <mxCell id="fkUFLAA0ZPrVyIxL3Ro9-28" style="edgeStyle=orthogonalEdgeStyle;rounded=0;orthogonalLoop=1;jettySize=auto;html=1;entryX=0;entryY=0.617;entryDx=0;entryDy=0;exitX=0.65;exitY=1;exitDx=0;exitDy=0;exitPerimeter=0;entryPerimeter=0;" parent="1" source="fkUFLAA0ZPrVyIxL3Ro9-4" target="fkUFLAA0ZPrVyIxL3Ro9-23" edge="1">
          <mxGeometry relative="1" as="geometry">
            <mxPoint x="978" y="212" as="sourcePoint" />
            <mxPoint x="1019" y="385" as="targetPoint" />
          </mxGeometry>
        </mxCell>
        <mxCell id="fkUFLAA0ZPrVyIxL3Ro9-29" value="" style="group" parent="1" vertex="1" connectable="0">
          <mxGeometry x="1181" y="470" width="120" height="240" as="geometry" />
        </mxCell>
        <mxCell id="fkUFLAA0ZPrVyIxL3Ro9-30" value="&lt;b&gt;PLAN 3-1&lt;/b&gt;" style="rounded=1;whiteSpace=wrap;html=1;" parent="fkUFLAA0ZPrVyIxL3Ro9-29" vertex="1">
          <mxGeometry width="120" height="60" as="geometry" />
        </mxCell>
        <mxCell id="fkUFLAA0ZPrVyIxL3Ro9-31" value="&lt;b style=&quot;border-color: var(--border-color);&quot;&gt;PLAN 3-3&lt;/b&gt;" style="rounded=1;whiteSpace=wrap;html=1;" parent="fkUFLAA0ZPrVyIxL3Ro9-29" vertex="1">
          <mxGeometry y="180" width="120" height="60" as="geometry" />
        </mxCell>
        <mxCell id="fkUFLAA0ZPrVyIxL3Ro9-32" value="&lt;b style=&quot;border-color: var(--border-color);&quot;&gt;PLAN 3-2&lt;/b&gt;" style="rounded=1;whiteSpace=wrap;html=1;" parent="fkUFLAA0ZPrVyIxL3Ro9-29" vertex="1">
          <mxGeometry y="90" width="120" height="60" as="geometry" />
        </mxCell>
        <mxCell id="fkUFLAA0ZPrVyIxL3Ro9-33" value="" style="group" parent="1" vertex="1" connectable="0">
          <mxGeometry x="1181" y="170" width="120" height="240" as="geometry" />
        </mxCell>
        <mxCell id="fkUFLAA0ZPrVyIxL3Ro9-34" value="&lt;b&gt;PLAN 2-1&lt;/b&gt;" style="rounded=1;whiteSpace=wrap;html=1;" parent="fkUFLAA0ZPrVyIxL3Ro9-33" vertex="1">
          <mxGeometry width="120" height="60" as="geometry" />
        </mxCell>
        <mxCell id="fkUFLAA0ZPrVyIxL3Ro9-35" value="&lt;b style=&quot;border-color: var(--border-color);&quot;&gt;PLAN 2-3&lt;/b&gt;" style="rounded=1;whiteSpace=wrap;html=1;" parent="fkUFLAA0ZPrVyIxL3Ro9-33" vertex="1">
          <mxGeometry y="180" width="120" height="60" as="geometry" />
        </mxCell>
        <mxCell id="fkUFLAA0ZPrVyIxL3Ro9-36" value="&lt;b style=&quot;border-color: var(--border-color);&quot;&gt;PLAN 2-2&lt;/b&gt;" style="rounded=1;whiteSpace=wrap;html=1;" parent="fkUFLAA0ZPrVyIxL3Ro9-33" vertex="1">
          <mxGeometry y="90" width="120" height="60" as="geometry" />
        </mxCell>
        <mxCell id="fkUFLAA0ZPrVyIxL3Ro9-37" style="edgeStyle=orthogonalEdgeStyle;rounded=0;orthogonalLoop=1;jettySize=auto;html=1;entryX=0;entryY=0.5;entryDx=0;entryDy=0;" parent="1" source="fkUFLAA0ZPrVyIxL3Ro9-25" target="fkUFLAA0ZPrVyIxL3Ro9-34" edge="1">
          <mxGeometry relative="1" as="geometry" />
        </mxCell>
        <mxCell id="fkUFLAA0ZPrVyIxL3Ro9-38" style="edgeStyle=orthogonalEdgeStyle;rounded=0;orthogonalLoop=1;jettySize=auto;html=1;entryX=0;entryY=0.5;entryDx=0;entryDy=0;" parent="1" source="fkUFLAA0ZPrVyIxL3Ro9-25" target="fkUFLAA0ZPrVyIxL3Ro9-36" edge="1">
          <mxGeometry relative="1" as="geometry" />
        </mxCell>
        <mxCell id="fkUFLAA0ZPrVyIxL3Ro9-39" style="edgeStyle=orthogonalEdgeStyle;rounded=0;orthogonalLoop=1;jettySize=auto;html=1;entryX=0;entryY=0.4;entryDx=0;entryDy=0;entryPerimeter=0;" parent="1" source="fkUFLAA0ZPrVyIxL3Ro9-25" target="fkUFLAA0ZPrVyIxL3Ro9-35" edge="1">
          <mxGeometry relative="1" as="geometry" />
        </mxCell>
        <mxCell id="fkUFLAA0ZPrVyIxL3Ro9-40" style="edgeStyle=orthogonalEdgeStyle;rounded=0;orthogonalLoop=1;jettySize=auto;html=1;entryX=0;entryY=0.5;entryDx=0;entryDy=0;" parent="1" source="fkUFLAA0ZPrVyIxL3Ro9-24" target="fkUFLAA0ZPrVyIxL3Ro9-31" edge="1">
          <mxGeometry relative="1" as="geometry" />
        </mxCell>
        <mxCell id="fkUFLAA0ZPrVyIxL3Ro9-41" style="edgeStyle=orthogonalEdgeStyle;rounded=0;orthogonalLoop=1;jettySize=auto;html=1;entryX=0;entryY=0.5;entryDx=0;entryDy=0;" parent="1" source="fkUFLAA0ZPrVyIxL3Ro9-24" target="fkUFLAA0ZPrVyIxL3Ro9-32" edge="1">
          <mxGeometry relative="1" as="geometry" />
        </mxCell>
        <mxCell id="fkUFLAA0ZPrVyIxL3Ro9-42" style="edgeStyle=orthogonalEdgeStyle;rounded=0;orthogonalLoop=1;jettySize=auto;html=1;entryX=0;entryY=0.5;entryDx=0;entryDy=0;" parent="1" source="fkUFLAA0ZPrVyIxL3Ro9-24" target="fkUFLAA0ZPrVyIxL3Ro9-30" edge="1">
          <mxGeometry relative="1" as="geometry" />
        </mxCell>
        <mxCell id="fkUFLAA0ZPrVyIxL3Ro9-43" style="edgeStyle=orthogonalEdgeStyle;rounded=0;orthogonalLoop=1;jettySize=auto;html=1;entryX=0;entryY=0.617;entryDx=0;entryDy=0;entryPerimeter=0;" parent="1" source="fkUFLAA0ZPrVyIxL3Ro9-4" target="fkUFLAA0ZPrVyIxL3Ro9-16" edge="1">
          <mxGeometry relative="1" as="geometry">
            <Array as="points">
              <mxPoint x="950" y="1037" />
            </Array>
          </mxGeometry>
        </mxCell>
        <mxCell id="fkUFLAA0ZPrVyIxL3Ro9-51" style="edgeStyle=orthogonalEdgeStyle;rounded=0;orthogonalLoop=1;jettySize=auto;html=1;entryX=0.5;entryY=0;entryDx=0;entryDy=0;" parent="1" source="fkUFLAA0ZPrVyIxL3Ro9-46" target="fkUFLAA0ZPrVyIxL3Ro9-48" edge="1">
          <mxGeometry relative="1" as="geometry" />
        </mxCell>
        <mxCell id="fkUFLAA0ZPrVyIxL3Ro9-52" style="edgeStyle=orthogonalEdgeStyle;rounded=0;orthogonalLoop=1;jettySize=auto;html=1;entryX=0.5;entryY=0;entryDx=0;entryDy=0;exitX=0.5;exitY=1;exitDx=0;exitDy=0;" parent="1" source="fkUFLAA0ZPrVyIxL3Ro9-46" target="fkUFLAA0ZPrVyIxL3Ro9-50" edge="1">
          <mxGeometry relative="1" as="geometry">
            <mxPoint x="1688" y="199" as="sourcePoint" />
            <mxPoint x="1868" y="269" as="targetPoint" />
            <Array as="points">
              <mxPoint x="1688" y="235" />
              <mxPoint x="1868" y="235" />
            </Array>
          </mxGeometry>
        </mxCell>
        <mxCell id="fkUFLAA0ZPrVyIxL3Ro9-46" value="&lt;b&gt;CUSTOMER&lt;/b&gt;" style="rounded=1;whiteSpace=wrap;html=1;" parent="1" vertex="1">
          <mxGeometry x="1628" y="140" width="120" height="60" as="geometry" />
        </mxCell>
        <mxCell id="fkUFLAA0ZPrVyIxL3Ro9-64" style="edgeStyle=orthogonalEdgeStyle;rounded=0;orthogonalLoop=1;jettySize=auto;html=1;entryX=1;entryY=0.5;entryDx=0;entryDy=0;" parent="1" source="fkUFLAA0ZPrVyIxL3Ro9-48" target="fkUFLAA0ZPrVyIxL3Ro9-55" edge="1">
          <mxGeometry relative="1" as="geometry" />
        </mxCell>
        <mxCell id="fkUFLAA0ZPrVyIxL3Ro9-65" style="edgeStyle=orthogonalEdgeStyle;rounded=0;orthogonalLoop=1;jettySize=auto;html=1;entryX=1;entryY=0.5;entryDx=0;entryDy=0;" parent="1" source="fkUFLAA0ZPrVyIxL3Ro9-48" target="fkUFLAA0ZPrVyIxL3Ro9-56" edge="1">
          <mxGeometry relative="1" as="geometry" />
        </mxCell>
        <mxCell id="fkUFLAA0ZPrVyIxL3Ro9-66" style="edgeStyle=orthogonalEdgeStyle;rounded=0;orthogonalLoop=1;jettySize=auto;html=1;entryX=1;entryY=0.5;entryDx=0;entryDy=0;" parent="1" source="fkUFLAA0ZPrVyIxL3Ro9-48" target="fkUFLAA0ZPrVyIxL3Ro9-54" edge="1">
          <mxGeometry relative="1" as="geometry" />
        </mxCell>
        <mxCell id="fkUFLAA0ZPrVyIxL3Ro9-48" value="&lt;b&gt;PROJECT 1&lt;/b&gt;" style="rounded=1;whiteSpace=wrap;html=1;" parent="1" vertex="1">
          <mxGeometry x="1518" y="270" width="120" height="60" as="geometry" />
        </mxCell>
        <mxCell id="fkUFLAA0ZPrVyIxL3Ro9-61" style="edgeStyle=orthogonalEdgeStyle;rounded=0;orthogonalLoop=1;jettySize=auto;html=1;entryX=0;entryY=0.5;entryDx=0;entryDy=0;" parent="1" source="fkUFLAA0ZPrVyIxL3Ro9-50" target="fkUFLAA0ZPrVyIxL3Ro9-59" edge="1">
          <mxGeometry relative="1" as="geometry" />
        </mxCell>
        <mxCell id="fkUFLAA0ZPrVyIxL3Ro9-62" style="edgeStyle=orthogonalEdgeStyle;rounded=0;orthogonalLoop=1;jettySize=auto;html=1;entryX=0;entryY=0.5;entryDx=0;entryDy=0;" parent="1" source="fkUFLAA0ZPrVyIxL3Ro9-50" target="fkUFLAA0ZPrVyIxL3Ro9-60" edge="1">
          <mxGeometry relative="1" as="geometry" />
        </mxCell>
        <mxCell id="fkUFLAA0ZPrVyIxL3Ro9-63" style="edgeStyle=orthogonalEdgeStyle;rounded=0;orthogonalLoop=1;jettySize=auto;html=1;entryX=0;entryY=0.5;entryDx=0;entryDy=0;" parent="1" source="fkUFLAA0ZPrVyIxL3Ro9-50" target="fkUFLAA0ZPrVyIxL3Ro9-58" edge="1">
          <mxGeometry relative="1" as="geometry" />
        </mxCell>
        <mxCell id="fkUFLAA0ZPrVyIxL3Ro9-50" value="&lt;b style=&quot;border-color: var(--border-color);&quot;&gt;PROJECT 2&lt;/b&gt;" style="rounded=1;whiteSpace=wrap;html=1;" parent="1" vertex="1">
          <mxGeometry x="1808" y="270" width="120" height="60" as="geometry" />
        </mxCell>
        <mxCell id="fkUFLAA0ZPrVyIxL3Ro9-53" value="" style="group" parent="1" vertex="1" connectable="0">
          <mxGeometry x="1430" y="530" width="120" height="240" as="geometry" />
        </mxCell>
        <mxCell id="fkUFLAA0ZPrVyIxL3Ro9-54" value="&lt;b&gt;RESOURCE 1-1&lt;/b&gt;" style="rounded=1;whiteSpace=wrap;html=1;" parent="fkUFLAA0ZPrVyIxL3Ro9-53" vertex="1">
          <mxGeometry width="120" height="60" as="geometry" />
        </mxCell>
        <mxCell id="fkUFLAA0ZPrVyIxL3Ro9-55" value="&lt;b style=&quot;border-color: var(--border-color);&quot;&gt;RESOURCE 1-3&lt;/b&gt;" style="rounded=1;whiteSpace=wrap;html=1;" parent="fkUFLAA0ZPrVyIxL3Ro9-53" vertex="1">
          <mxGeometry y="180" width="120" height="60" as="geometry" />
        </mxCell>
        <mxCell id="fkUFLAA0ZPrVyIxL3Ro9-56" value="&lt;b style=&quot;border-color: var(--border-color);&quot;&gt;RESOURCE 1-2&lt;/b&gt;" style="rounded=1;whiteSpace=wrap;html=1;" parent="fkUFLAA0ZPrVyIxL3Ro9-53" vertex="1">
          <mxGeometry y="90" width="120" height="60" as="geometry" />
        </mxCell>
        <mxCell id="fkUFLAA0ZPrVyIxL3Ro9-57" value="" style="group" parent="1" vertex="1" connectable="0">
          <mxGeometry x="1888" y="440" width="120" height="240" as="geometry" />
        </mxCell>
        <mxCell id="fkUFLAA0ZPrVyIxL3Ro9-58" value="&lt;b&gt;RESOURCE 2-1&lt;/b&gt;" style="rounded=1;whiteSpace=wrap;html=1;" parent="fkUFLAA0ZPrVyIxL3Ro9-57" vertex="1">
          <mxGeometry width="120" height="60" as="geometry" />
        </mxCell>
        <mxCell id="fkUFLAA0ZPrVyIxL3Ro9-59" value="&lt;b style=&quot;border-color: var(--border-color);&quot;&gt;RESOURCE 2-3&lt;/b&gt;" style="rounded=1;whiteSpace=wrap;html=1;" parent="fkUFLAA0ZPrVyIxL3Ro9-57" vertex="1">
          <mxGeometry y="180" width="120" height="60" as="geometry" />
        </mxCell>
        <mxCell id="fkUFLAA0ZPrVyIxL3Ro9-60" value="&lt;b style=&quot;border-color: var(--border-color);&quot;&gt;RESOURCE 2-2&lt;/b&gt;" style="rounded=1;whiteSpace=wrap;html=1;" parent="fkUFLAA0ZPrVyIxL3Ro9-57" vertex="1">
          <mxGeometry y="90" width="120" height="60" as="geometry" />
        </mxCell>
        <mxCell id="fkUFLAA0ZPrVyIxL3Ro9-68" value="" style="edgeStyle=entityRelationEdgeStyle;fontSize=12;html=1;endArrow=ERoneToMany;rounded=0;exitX=1;exitY=0.5;exitDx=0;exitDy=0;entryX=0;entryY=0.25;entryDx=0;entryDy=0;" parent="1" source="fkUFLAA0ZPrVyIxL3Ro9-30" target="fkUFLAA0ZPrVyIxL3Ro9-54" edge="1">
          <mxGeometry width="100" height="100" relative="1" as="geometry">
            <mxPoint x="1640" y="630" as="sourcePoint" />
            <mxPoint x="1740" y="530" as="targetPoint" />
          </mxGeometry>
        </mxCell>
        <mxCell id="fkUFLAA0ZPrVyIxL3Ro9-69" value="" style="edgeStyle=entityRelationEdgeStyle;fontSize=12;html=1;endArrow=ERoneToMany;rounded=0;exitX=1;exitY=0.5;exitDx=0;exitDy=0;entryX=0;entryY=0.25;entryDx=0;entryDy=0;" parent="1" source="fkUFLAA0ZPrVyIxL3Ro9-30" target="fkUFLAA0ZPrVyIxL3Ro9-56" edge="1">
          <mxGeometry width="100" height="100" relative="1" as="geometry">
            <mxPoint x="1311" y="510" as="sourcePoint" />
            <mxPoint x="1440" y="570" as="targetPoint" />
          </mxGeometry>
        </mxCell>
        <mxCell id="fkUFLAA0ZPrVyIxL3Ro9-70" value="" style="edgeStyle=entityRelationEdgeStyle;fontSize=12;html=1;endArrow=ERoneToMany;rounded=0;exitX=1;exitY=0.5;exitDx=0;exitDy=0;" parent="1" source="fkUFLAA0ZPrVyIxL3Ro9-32" edge="1">
          <mxGeometry width="100" height="100" relative="1" as="geometry">
            <mxPoint x="1311" y="510" as="sourcePoint" />
            <mxPoint x="1430" y="720" as="targetPoint" />
          </mxGeometry>
        </mxCell>
        <mxCell id="fkUFLAA0ZPrVyIxL3Ro9-121" value="&lt;font style=&quot;font-size: 14px;&quot;&gt;NOTE:&lt;br&gt;&lt;/font&gt;&lt;ul style=&quot;font-size: 14px;&quot;&gt;&lt;li style=&quot;&quot;&gt;&lt;font style=&quot;font-size: 14px;&quot;&gt;A project can delete or add more resources&lt;/font&gt;&lt;/li&gt;&lt;li style=&quot;&quot;&gt;&lt;font style=&quot;font-size: 14px;&quot;&gt;A project can have multiple resources, each attached to the same offering&lt;/font&gt;&lt;/li&gt;&lt;li style=&quot;&quot;&gt;&lt;font style=&quot;font-size: 14px;&quot;&gt;A project can have multiple resources, each attached to the same service provider&lt;/font&gt;&lt;/li&gt;&lt;li style=&quot;&quot;&gt;&lt;font style=&quot;font-size: 14px;&quot;&gt;A project can have multiple resources, each with one plan thus one offering.&lt;/font&gt;&lt;/li&gt;&lt;li style=&quot;&quot;&gt;&lt;font style=&quot;font-size: 14px;&quot;&gt;Each plan can have multiple components, against which usage is reported&lt;/font&gt;&lt;/li&gt;&lt;li style=&quot;&quot;&gt;&lt;font style=&quot;font-size: 14px;&quot;&gt;Each component has a &#39;measurement unit&#39;&lt;/font&gt;&lt;/li&gt;&lt;li style=&quot;&quot;&gt;&lt;font style=&quot;font-size: 14px;&quot;&gt;A resource has a property called &quot;limits&quot; which is a dictionary of component-type and maximum permissible amount (in that component&#39;s measurement units) of resource usage. It is empty if resource is &quot;usage-billed&quot;.&lt;/font&gt;&lt;/li&gt;&lt;/ul&gt;" style="text;html=1;strokeColor=none;fillColor=none;align=left;verticalAlign=middle;whiteSpace=wrap;rounded=0;" parent="1" vertex="1">
          <mxGeometry x="1700" y="940" width="280" height="30" as="geometry" />
        </mxCell>
        <mxCell id="83O2qGFC5Ym3WMPXwub_-9" value="" style="group" parent="1" vertex="1" connectable="0">
          <mxGeometry x="2110" y="10" width="660" height="2033" as="geometry" />
        </mxCell>
        <mxCell id="fkUFLAA0ZPrVyIxL3Ro9-117" value="" style="group" parent="83O2qGFC5Ym3WMPXwub_-9" vertex="1" connectable="0">
          <mxGeometry x="35" y="98.5" width="590" height="1934.5" as="geometry" />
        </mxCell>
        <mxCell id="83O2qGFC5Ym3WMPXwub_-8" value="" style="group" parent="fkUFLAA0ZPrVyIxL3Ro9-117" vertex="1" connectable="0">
          <mxGeometry width="485" height="1461" as="geometry" />
        </mxCell>
        <mxCell id="fkUFLAA0ZPrVyIxL3Ro9-78" value="&lt;font style=&quot;font-size: 14px;&quot;&gt;START&lt;/font&gt;" style="strokeWidth=2;html=1;shape=mxgraph.flowchart.start_1;whiteSpace=wrap;" parent="83O2qGFC5Ym3WMPXwub_-8" vertex="1">
          <mxGeometry x="40" width="100" height="60" as="geometry" />
        </mxCell>
        <mxCell id="fkUFLAA0ZPrVyIxL3Ro9-79" value="&lt;font style=&quot;font-size: 14px;&quot;&gt;Get all resources attached to the given project ID&lt;/font&gt;" style="rounded=1;whiteSpace=wrap;html=1;absoluteArcSize=1;arcSize=14;strokeWidth=2;" parent="83O2qGFC5Ym3WMPXwub_-8" vertex="1">
          <mxGeometry x="35" y="100" width="110" height="100" as="geometry" />
        </mxCell>
        <mxCell id="fkUFLAA0ZPrVyIxL3Ro9-80" style="edgeStyle=orthogonalEdgeStyle;rounded=0;orthogonalLoop=1;jettySize=auto;html=1;entryX=0.5;entryY=0;entryDx=0;entryDy=0;" parent="83O2qGFC5Ym3WMPXwub_-8" source="fkUFLAA0ZPrVyIxL3Ro9-78" target="fkUFLAA0ZPrVyIxL3Ro9-79" edge="1">
          <mxGeometry relative="1" as="geometry" />
        </mxCell>
        <mxCell id="fkUFLAA0ZPrVyIxL3Ro9-83" value="&lt;font style=&quot;font-size: 14px;&quot;&gt;Are they more than ZERO?&lt;/font&gt;" style="strokeWidth=2;html=1;shape=mxgraph.flowchart.decision;whiteSpace=wrap;" parent="83O2qGFC5Ym3WMPXwub_-8" vertex="1">
          <mxGeometry x="30" y="260" width="120" height="130" as="geometry" />
        </mxCell>
        <mxCell id="fkUFLAA0ZPrVyIxL3Ro9-87" value="&lt;font style=&quot;font-size: 14px;&quot;&gt;Raise Resource-not-found error&lt;/font&gt;" style="rounded=1;whiteSpace=wrap;html=1;absoluteArcSize=1;arcSize=14;strokeWidth=2;" parent="83O2qGFC5Ym3WMPXwub_-8" vertex="1">
          <mxGeometry x="305" y="275" width="100" height="100" as="geometry" />
        </mxCell>
        <mxCell id="fkUFLAA0ZPrVyIxL3Ro9-88" style="edgeStyle=orthogonalEdgeStyle;rounded=0;orthogonalLoop=1;jettySize=auto;html=1;" parent="83O2qGFC5Ym3WMPXwub_-8" source="fkUFLAA0ZPrVyIxL3Ro9-83" target="fkUFLAA0ZPrVyIxL3Ro9-87" edge="1">
          <mxGeometry relative="1" as="geometry" />
        </mxCell>
        <mxCell id="fkUFLAA0ZPrVyIxL3Ro9-89" value="&lt;font style=&quot;font-size: 14px;&quot;&gt;No&lt;/font&gt;" style="edgeLabel;html=1;align=center;verticalAlign=middle;resizable=0;points=[];" parent="fkUFLAA0ZPrVyIxL3Ro9-88" vertex="1" connectable="0">
          <mxGeometry x="-0.2485" y="2" relative="1" as="geometry">
            <mxPoint as="offset" />
          </mxGeometry>
        </mxCell>
        <mxCell id="fkUFLAA0ZPrVyIxL3Ro9-90" style="edgeStyle=orthogonalEdgeStyle;rounded=0;orthogonalLoop=1;jettySize=auto;html=1;entryX=0.5;entryY=0;entryDx=0;entryDy=0;entryPerimeter=0;" parent="83O2qGFC5Ym3WMPXwub_-8" source="fkUFLAA0ZPrVyIxL3Ro9-79" target="fkUFLAA0ZPrVyIxL3Ro9-83" edge="1">
          <mxGeometry relative="1" as="geometry" />
        </mxCell>
        <mxCell id="fkUFLAA0ZPrVyIxL3Ro9-98" value="&lt;font style=&quot;font-size: 15px;&quot;&gt;Get all resources that have limits i.e. are &quot;limit-based&quot; (to consume the limit-based resources first)&lt;/font&gt;" style="rounded=1;whiteSpace=wrap;html=1;absoluteArcSize=1;arcSize=14;strokeWidth=2;labelPadding=33;noLabel=0;" parent="83O2qGFC5Ym3WMPXwub_-8" vertex="1">
          <mxGeometry x="19" y="471" width="142" height="150" as="geometry" />
        </mxCell>
        <mxCell id="fkUFLAA0ZPrVyIxL3Ro9-84" style="edgeStyle=orthogonalEdgeStyle;rounded=0;orthogonalLoop=1;jettySize=auto;html=1;" parent="83O2qGFC5Ym3WMPXwub_-8" source="fkUFLAA0ZPrVyIxL3Ro9-83" target="fkUFLAA0ZPrVyIxL3Ro9-98" edge="1">
          <mxGeometry relative="1" as="geometry">
            <mxPoint x="90" y="470" as="targetPoint" />
          </mxGeometry>
        </mxCell>
        <mxCell id="fkUFLAA0ZPrVyIxL3Ro9-85" value="&lt;font style=&quot;font-size: 14px;&quot;&gt;Yes&lt;/font&gt;" style="edgeLabel;html=1;align=center;verticalAlign=middle;resizable=0;points=[];" parent="fkUFLAA0ZPrVyIxL3Ro9-84" vertex="1" connectable="0">
          <mxGeometry x="-0.2" y="-1" relative="1" as="geometry">
            <mxPoint as="offset" />
          </mxGeometry>
        </mxCell>
        <mxCell id="fkUFLAA0ZPrVyIxL3Ro9-102" value="&lt;font style=&quot;font-size: 14px;&quot;&gt;Are they more than ZERO?&lt;/font&gt;" style="strokeWidth=2;html=1;shape=mxgraph.flowchart.decision;whiteSpace=wrap;" parent="83O2qGFC5Ym3WMPXwub_-8" vertex="1">
          <mxGeometry x="30" y="681" width="120" height="130" as="geometry" />
        </mxCell>
        <mxCell id="fkUFLAA0ZPrVyIxL3Ro9-103" value="&lt;font style=&quot;font-size: 14px;&quot;&gt;Get the first resource in project&#39;s resources and report usage with its &quot;resource_uuid&quot;, &quot;customer_uuid&quot;, &quot;plan_uuid&quot; and &quot;component type&quot; got from the first &quot;usage-billed&quot; component of the plan whose uuid is &quot;plan_uuid&quot;&lt;/font&gt;" style="rounded=1;whiteSpace=wrap;html=1;absoluteArcSize=1;arcSize=14;strokeWidth=2;" parent="83O2qGFC5Ym3WMPXwub_-8" vertex="1">
          <mxGeometry x="305" y="641" width="175" height="210" as="geometry" />
        </mxCell>
        <mxCell id="fkUFLAA0ZPrVyIxL3Ro9-100" style="edgeStyle=orthogonalEdgeStyle;rounded=0;orthogonalLoop=1;jettySize=auto;html=1;" parent="83O2qGFC5Ym3WMPXwub_-8" source="fkUFLAA0ZPrVyIxL3Ro9-102" target="fkUFLAA0ZPrVyIxL3Ro9-103" edge="1">
          <mxGeometry relative="1" as="geometry" />
        </mxCell>
        <mxCell id="fkUFLAA0ZPrVyIxL3Ro9-101" value="&lt;font style=&quot;font-size: 14px;&quot;&gt;No&lt;/font&gt;" style="edgeLabel;html=1;align=center;verticalAlign=middle;resizable=0;points=[];" parent="fkUFLAA0ZPrVyIxL3Ro9-100" vertex="1" connectable="0">
          <mxGeometry x="-0.2485" y="2" relative="1" as="geometry">
            <mxPoint as="offset" />
          </mxGeometry>
        </mxCell>
        <mxCell id="fkUFLAA0ZPrVyIxL3Ro9-104" style="edgeStyle=orthogonalEdgeStyle;rounded=0;orthogonalLoop=1;jettySize=auto;html=1;entryX=0.5;entryY=0;entryDx=0;entryDy=0;entryPerimeter=0;" parent="83O2qGFC5Ym3WMPXwub_-8" source="fkUFLAA0ZPrVyIxL3Ro9-98" target="fkUFLAA0ZPrVyIxL3Ro9-102" edge="1">
          <mxGeometry relative="1" as="geometry" />
        </mxCell>
        <mxCell id="fkUFLAA0ZPrVyIxL3Ro9-106" value="&lt;font style=&quot;font-size: 14px;&quot;&gt;Get the first resource with limit greater or equal to usage and report usage with its &quot;resource_uuid&quot;, &quot;customer_uuid&quot;, &lt;/font&gt;&lt;font style=&quot;font-size: 14px;&quot;&gt;&lt;font style=&quot;font-size: 14px;&quot;&gt;&quot;plan_uuid&quot;&amp;nbsp;&lt;/font&gt;and &quot;component type&quot; got from the key in the &quot;limits&quot; dict of the resource which has value &amp;gt;= 0&lt;/font&gt;" style="rounded=1;whiteSpace=wrap;html=1;absoluteArcSize=1;arcSize=14;strokeWidth=2;" parent="83O2qGFC5Ym3WMPXwub_-8" vertex="1">
          <mxGeometry x="2.5" y="1251" width="175" height="210" as="geometry" />
        </mxCell>
        <mxCell id="fkUFLAA0ZPrVyIxL3Ro9-111" style="edgeStyle=orthogonalEdgeStyle;rounded=0;orthogonalLoop=1;jettySize=auto;html=1;exitX=0.5;exitY=1;exitDx=0;exitDy=0;exitPerimeter=0;" parent="83O2qGFC5Ym3WMPXwub_-8" source="fkUFLAA0ZPrVyIxL3Ro9-108" target="fkUFLAA0ZPrVyIxL3Ro9-106" edge="1">
          <mxGeometry relative="1" as="geometry" />
        </mxCell>
        <mxCell id="fkUFLAA0ZPrVyIxL3Ro9-112" value="&lt;font style=&quot;font-size: 14px;&quot;&gt;Yes&lt;/font&gt;" style="edgeLabel;html=1;align=center;verticalAlign=middle;resizable=0;points=[];" parent="fkUFLAA0ZPrVyIxL3Ro9-111" vertex="1" connectable="0">
          <mxGeometry x="-0.2239" y="-2" relative="1" as="geometry">
            <mxPoint as="offset" />
          </mxGeometry>
        </mxCell>
        <mxCell id="fkUFLAA0ZPrVyIxL3Ro9-108" value="&lt;font style=&quot;font-size: 14px;&quot;&gt;Is any of them &lt;br&gt;with a limit greater&lt;br&gt;&amp;nbsp;or equal to the &lt;br&gt;usage amount to be reported?&lt;/font&gt;" style="strokeWidth=2;html=1;shape=mxgraph.flowchart.decision;whiteSpace=wrap;" parent="83O2qGFC5Ym3WMPXwub_-8" vertex="1">
          <mxGeometry y="944" width="180" height="180" as="geometry" />
        </mxCell>
        <mxCell id="fkUFLAA0ZPrVyIxL3Ro9-109" style="edgeStyle=orthogonalEdgeStyle;rounded=0;orthogonalLoop=1;jettySize=auto;html=1;exitX=0.5;exitY=1;exitDx=0;exitDy=0;exitPerimeter=0;entryX=0.5;entryY=0;entryDx=0;entryDy=0;entryPerimeter=0;" parent="83O2qGFC5Ym3WMPXwub_-8" source="fkUFLAA0ZPrVyIxL3Ro9-102" target="fkUFLAA0ZPrVyIxL3Ro9-108" edge="1">
          <mxGeometry relative="1" as="geometry" />
        </mxCell>
        <mxCell id="fkUFLAA0ZPrVyIxL3Ro9-110" value="&lt;font style=&quot;font-size: 14px;&quot;&gt;Yes&lt;/font&gt;" style="edgeLabel;html=1;align=center;verticalAlign=middle;resizable=0;points=[];" parent="fkUFLAA0ZPrVyIxL3Ro9-109" vertex="1" connectable="0">
          <mxGeometry x="-0.2" y="-3" relative="1" as="geometry">
            <mxPoint as="offset" />
          </mxGeometry>
        </mxCell>
        <mxCell id="fkUFLAA0ZPrVyIxL3Ro9-113" value="&lt;font style=&quot;font-size: 14px;&quot;&gt;Get the first &quot;limit-based&quot; resource report usage with its &quot;resource_uuid&quot;, &quot;customer_uuid&quot;, &quot;plan_uuid&quot;&amp;nbsp;&lt;/font&gt;&amp;nbsp;&lt;font style=&quot;font-size: 14px;&quot;&gt;and &quot;component type&quot; got from the first key in the &quot;limits&quot; dict of the resource&lt;/font&gt;" style="rounded=1;whiteSpace=wrap;html=1;absoluteArcSize=1;arcSize=14;strokeWidth=2;" parent="83O2qGFC5Ym3WMPXwub_-8" vertex="1">
          <mxGeometry x="310" y="946" width="175" height="210" as="geometry" />
        </mxCell>
        <mxCell id="fkUFLAA0ZPrVyIxL3Ro9-114" style="edgeStyle=orthogonalEdgeStyle;rounded=0;orthogonalLoop=1;jettySize=auto;html=1;exitX=1;exitY=0.5;exitDx=0;exitDy=0;exitPerimeter=0;entryX=0.006;entryY=0.419;entryDx=0;entryDy=0;entryPerimeter=0;" parent="83O2qGFC5Ym3WMPXwub_-8" source="fkUFLAA0ZPrVyIxL3Ro9-108" target="fkUFLAA0ZPrVyIxL3Ro9-113" edge="1">
          <mxGeometry relative="1" as="geometry" />
        </mxCell>
        <mxCell id="fkUFLAA0ZPrVyIxL3Ro9-115" value="&lt;font style=&quot;font-size: 14px;&quot;&gt;No&lt;/font&gt;" style="edgeLabel;html=1;align=center;verticalAlign=middle;resizable=0;points=[];" parent="fkUFLAA0ZPrVyIxL3Ro9-114" vertex="1" connectable="0">
          <mxGeometry x="-0.1911" y="1" relative="1" as="geometry">
            <mxPoint as="offset" />
          </mxGeometry>
        </mxCell>
        <mxCell id="fkUFLAA0ZPrVyIxL3Ro9-116" value="&lt;font style=&quot;font-size: 15px;&quot;&gt;&lt;b&gt;SELECTING WHICH RESOURCE &amp;amp; COMPONENT TO REPORT ON&lt;/b&gt;&lt;/font&gt;" style="text;html=1;align=center;verticalAlign=middle;resizable=0;points=[];autosize=1;strokeColor=none;fillColor=none;" parent="83O2qGFC5Ym3WMPXwub_-9" vertex="1">
          <mxGeometry x="30" y="20" width="490" height="30" as="geometry" />
        </mxCell>
        <mxCell id="LcWXoN5NG4P5jIW5NJyD-2" value="" style="edgeStyle=entityRelationEdgeStyle;fontSize=12;html=1;endArrow=ERmany;startArrow=ERmany;rounded=0;exitX=1;exitY=0.75;exitDx=0;exitDy=0;" edge="1" parent="1" source="fkUFLAA0ZPrVyIxL3Ro9-32">
          <mxGeometry width="100" height="100" relative="1" as="geometry">
            <mxPoint x="1100" y="750" as="sourcePoint" />
            <mxPoint x="1450" y="950" as="targetPoint" />
          </mxGeometry>
        </mxCell>
        <mxCell id="LcWXoN5NG4P5jIW5NJyD-3" value="" style="edgeStyle=entityRelationEdgeStyle;fontSize=12;html=1;endArrow=ERmany;startArrow=ERmany;rounded=0;exitX=0.992;exitY=0.875;exitDx=0;exitDy=0;exitPerimeter=0;" edge="1" parent="1" source="fkUFLAA0ZPrVyIxL3Ro9-32">
          <mxGeometry width="100" height="100" relative="1" as="geometry">
            <mxPoint x="1311" y="615" as="sourcePoint" />
            <mxPoint x="1450" y="1020" as="targetPoint" />
          </mxGeometry>
        </mxCell>
        <mxCell id="LcWXoN5NG4P5jIW5NJyD-4" value="" style="edgeStyle=entityRelationEdgeStyle;fontSize=12;html=1;endArrow=ERmany;startArrow=ERmany;rounded=0;exitX=1;exitY=0.75;exitDx=0;exitDy=0;entryX=0;entryY=0.5;entryDx=0;entryDy=0;" edge="1" parent="1" source="fkUFLAA0ZPrVyIxL3Ro9-30" target="fkUFLAA0ZPrVyIxL3Ro9-56">
          <mxGeometry width="100" height="100" relative="1" as="geometry">
            <mxPoint x="1311" y="615" as="sourcePoint" />
            <mxPoint x="1430" y="670" as="targetPoint" />
          </mxGeometry>
        </mxCell>
      </root>
    </mxGraphModel>
  </diagram>
</mxfile>
